<mxfile host="app.diagrams.net" agent="Mozilla/5.0 (Windows NT 10.0; Win64; x64) AppleWebKit/537.36 (KHTML, like Gecko) Chrome/131.0.0.0 Safari/537.36" version="26.0.5">
  <diagram id="C5RBs43oDa-KdzZeNtuy" name="Page-1">
    <mxGraphModel dx="1235" dy="655" grid="0" gridSize="10" guides="1" tooltips="1" connect="1" arrows="1" fold="1" page="1" pageScale="1" pageWidth="827" pageHeight="1169" math="0" shadow="0">
      <root>
        <mxCell id="WIyWlLk6GJQsqaUBKTNV-0" />
        <mxCell id="WIyWlLk6GJQsqaUBKTNV-1" parent="WIyWlLk6GJQsqaUBKTNV-0" />
        <mxCell id="AJD_xcAIJQe30nwHhnDZ-58" value="User" style="ellipse;whiteSpace=wrap;html=1;aspect=fixed;" vertex="1" parent="WIyWlLk6GJQsqaUBKTNV-1">
          <mxGeometry x="344.62" y="23" width="65" height="65" as="geometry" />
        </mxCell>
        <mxCell id="AJD_xcAIJQe30nwHhnDZ-59" value="Visit&amp;nbsp;pam.empower.com" style="rounded=0;whiteSpace=wrap;html=1;" vertex="1" parent="WIyWlLk6GJQsqaUBKTNV-1">
          <mxGeometry x="302.62" y="126" width="164" height="33" as="geometry" />
        </mxCell>
        <mxCell id="AJD_xcAIJQe30nwHhnDZ-197" style="edgeStyle=orthogonalEdgeStyle;rounded=0;orthogonalLoop=1;jettySize=auto;html=1;entryX=0.5;entryY=0;entryDx=0;entryDy=0;" edge="1" parent="WIyWlLk6GJQsqaUBKTNV-1" source="AJD_xcAIJQe30nwHhnDZ-60" target="AJD_xcAIJQe30nwHhnDZ-61">
          <mxGeometry relative="1" as="geometry">
            <Array as="points">
              <mxPoint x="377" y="220" />
              <mxPoint x="377" y="220" />
            </Array>
          </mxGeometry>
        </mxCell>
        <mxCell id="AJD_xcAIJQe30nwHhnDZ-60" value="SSO Authentication" style="rounded=0;whiteSpace=wrap;html=1;" vertex="1" parent="WIyWlLk6GJQsqaUBKTNV-1">
          <mxGeometry x="302.61" y="182" width="164.5" height="32" as="geometry" />
        </mxCell>
        <mxCell id="AJD_xcAIJQe30nwHhnDZ-61" value="Login&lt;div&gt;&amp;nbsp;Method&lt;/div&gt;" style="rhombus;whiteSpace=wrap;html=1;" vertex="1" parent="WIyWlLk6GJQsqaUBKTNV-1">
          <mxGeometry x="333.99" y="238" width="86.25" height="82" as="geometry" />
        </mxCell>
        <mxCell id="AJD_xcAIJQe30nwHhnDZ-116" value="" style="edgeStyle=orthogonalEdgeStyle;rounded=0;orthogonalLoop=1;jettySize=auto;html=1;" edge="1" parent="WIyWlLk6GJQsqaUBKTNV-1" source="AJD_xcAIJQe30nwHhnDZ-62" target="AJD_xcAIJQe30nwHhnDZ-64">
          <mxGeometry relative="1" as="geometry" />
        </mxCell>
        <mxCell id="AJD_xcAIJQe30nwHhnDZ-62" value="Oracle Access Manager" style="rounded=0;whiteSpace=wrap;html=1;" vertex="1" parent="WIyWlLk6GJQsqaUBKTNV-1">
          <mxGeometry x="208" y="345" width="107" height="35" as="geometry" />
        </mxCell>
        <mxCell id="AJD_xcAIJQe30nwHhnDZ-120" value="" style="edgeStyle=orthogonalEdgeStyle;rounded=0;orthogonalLoop=1;jettySize=auto;html=1;entryX=0.5;entryY=0;entryDx=0;entryDy=0;" edge="1" parent="WIyWlLk6GJQsqaUBKTNV-1" source="AJD_xcAIJQe30nwHhnDZ-63" target="AJD_xcAIJQe30nwHhnDZ-65">
          <mxGeometry relative="1" as="geometry" />
        </mxCell>
        <mxCell id="AJD_xcAIJQe30nwHhnDZ-63" value="OKTA" style="rounded=0;whiteSpace=wrap;html=1;" vertex="1" parent="WIyWlLk6GJQsqaUBKTNV-1">
          <mxGeometry x="439.5" y="345" width="107" height="35" as="geometry" />
        </mxCell>
        <mxCell id="AJD_xcAIJQe30nwHhnDZ-64" value="PIN + Token" style="rounded=0;whiteSpace=wrap;html=1;" vertex="1" parent="WIyWlLk6GJQsqaUBKTNV-1">
          <mxGeometry x="208" y="410" width="107" height="30" as="geometry" />
        </mxCell>
        <mxCell id="AJD_xcAIJQe30nwHhnDZ-65" value="MFA" style="rounded=0;whiteSpace=wrap;html=1;" vertex="1" parent="WIyWlLk6GJQsqaUBKTNV-1">
          <mxGeometry x="439.5" y="410" width="107" height="30" as="geometry" />
        </mxCell>
        <mxCell id="AJD_xcAIJQe30nwHhnDZ-128" value="" style="edgeStyle=orthogonalEdgeStyle;rounded=0;orthogonalLoop=1;jettySize=auto;html=1;" edge="1" parent="WIyWlLk6GJQsqaUBKTNV-1" source="AJD_xcAIJQe30nwHhnDZ-67" target="AJD_xcAIJQe30nwHhnDZ-68">
          <mxGeometry relative="1" as="geometry" />
        </mxCell>
        <mxCell id="AJD_xcAIJQe30nwHhnDZ-67" value="AWS Route 53 DNS" style="rounded=0;whiteSpace=wrap;html=1;" vertex="1" parent="WIyWlLk6GJQsqaUBKTNV-1">
          <mxGeometry x="302.62" y="484" width="164.5" height="32" as="geometry" />
        </mxCell>
        <mxCell id="AJD_xcAIJQe30nwHhnDZ-68" value="Active&amp;nbsp;&lt;div&gt;Region?&lt;/div&gt;" style="rhombus;whiteSpace=wrap;html=1;" vertex="1" parent="WIyWlLk6GJQsqaUBKTNV-1">
          <mxGeometry x="340.8" y="552" width="88.13" height="86" as="geometry" />
        </mxCell>
        <mxCell id="AJD_xcAIJQe30nwHhnDZ-69" value="East Region&lt;div&gt;(Virginia)&lt;/div&gt;" style="rounded=0;whiteSpace=wrap;html=1;" vertex="1" parent="WIyWlLk6GJQsqaUBKTNV-1">
          <mxGeometry x="208" y="707" width="107" height="30" as="geometry" />
        </mxCell>
        <mxCell id="AJD_xcAIJQe30nwHhnDZ-70" value="West Region&lt;br&gt;(Oregon)" style="rounded=0;whiteSpace=wrap;html=1;" vertex="1" parent="WIyWlLk6GJQsqaUBKTNV-1">
          <mxGeometry x="438" y="707" width="107" height="30" as="geometry" />
        </mxCell>
        <mxCell id="AJD_xcAIJQe30nwHhnDZ-142" value="" style="edgeStyle=orthogonalEdgeStyle;rounded=0;orthogonalLoop=1;jettySize=auto;html=1;" edge="1" parent="WIyWlLk6GJQsqaUBKTNV-1" source="AJD_xcAIJQe30nwHhnDZ-71" target="AJD_xcAIJQe30nwHhnDZ-72">
          <mxGeometry relative="1" as="geometry" />
        </mxCell>
        <mxCell id="AJD_xcAIJQe30nwHhnDZ-71" value="BeyondTrust&lt;br&gt;Dashboard" style="rounded=0;whiteSpace=wrap;html=1;" vertex="1" parent="WIyWlLk6GJQsqaUBKTNV-1">
          <mxGeometry x="327.75" y="796" width="120" height="31" as="geometry" />
        </mxCell>
        <mxCell id="AJD_xcAIJQe30nwHhnDZ-72" value="Choose&amp;nbsp;&lt;div&gt;Access&lt;br&gt;Type&lt;/div&gt;" style="rhombus;whiteSpace=wrap;html=1;" vertex="1" parent="WIyWlLk6GJQsqaUBKTNV-1">
          <mxGeometry x="340.25" y="866" width="94.5" height="89" as="geometry" />
        </mxCell>
        <mxCell id="AJD_xcAIJQe30nwHhnDZ-152" style="edgeStyle=orthogonalEdgeStyle;rounded=0;orthogonalLoop=1;jettySize=auto;html=1;entryX=0.5;entryY=0;entryDx=0;entryDy=0;" edge="1" parent="WIyWlLk6GJQsqaUBKTNV-1" source="AJD_xcAIJQe30nwHhnDZ-73" target="AJD_xcAIJQe30nwHhnDZ-75">
          <mxGeometry relative="1" as="geometry" />
        </mxCell>
        <mxCell id="AJD_xcAIJQe30nwHhnDZ-73" value="RDP Access" style="rounded=0;whiteSpace=wrap;html=1;" vertex="1" parent="WIyWlLk6GJQsqaUBKTNV-1">
          <mxGeometry x="206.5" y="985" width="110" height="38" as="geometry" />
        </mxCell>
        <mxCell id="AJD_xcAIJQe30nwHhnDZ-153" style="edgeStyle=orthogonalEdgeStyle;rounded=0;orthogonalLoop=1;jettySize=auto;html=1;entryX=0.5;entryY=0;entryDx=0;entryDy=0;" edge="1" parent="WIyWlLk6GJQsqaUBKTNV-1" source="AJD_xcAIJQe30nwHhnDZ-74" target="AJD_xcAIJQe30nwHhnDZ-76">
          <mxGeometry relative="1" as="geometry" />
        </mxCell>
        <mxCell id="AJD_xcAIJQe30nwHhnDZ-74" value="Password&lt;div&gt;Checkout&lt;/div&gt;" style="rounded=0;whiteSpace=wrap;html=1;" vertex="1" parent="WIyWlLk6GJQsqaUBKTNV-1">
          <mxGeometry x="436.5" y="988" width="110" height="38" as="geometry" />
        </mxCell>
        <mxCell id="AJD_xcAIJQe30nwHhnDZ-154" style="edgeStyle=orthogonalEdgeStyle;rounded=0;orthogonalLoop=1;jettySize=auto;html=1;entryX=0.5;entryY=0;entryDx=0;entryDy=0;" edge="1" parent="WIyWlLk6GJQsqaUBKTNV-1" source="AJD_xcAIJQe30nwHhnDZ-75" target="AJD_xcAIJQe30nwHhnDZ-77">
          <mxGeometry relative="1" as="geometry" />
        </mxCell>
        <mxCell id="AJD_xcAIJQe30nwHhnDZ-75" value="Automatic&lt;br&gt;Connection" style="rounded=0;whiteSpace=wrap;html=1;" vertex="1" parent="WIyWlLk6GJQsqaUBKTNV-1">
          <mxGeometry x="206.5" y="1065" width="110" height="38" as="geometry" />
        </mxCell>
        <mxCell id="AJD_xcAIJQe30nwHhnDZ-155" style="edgeStyle=orthogonalEdgeStyle;rounded=0;orthogonalLoop=1;jettySize=auto;html=1;entryX=0.5;entryY=0;entryDx=0;entryDy=0;" edge="1" parent="WIyWlLk6GJQsqaUBKTNV-1" source="AJD_xcAIJQe30nwHhnDZ-76" target="AJD_xcAIJQe30nwHhnDZ-78">
          <mxGeometry relative="1" as="geometry" />
        </mxCell>
        <mxCell id="AJD_xcAIJQe30nwHhnDZ-76" value="Email Notification&lt;br&gt;sent" style="rounded=0;whiteSpace=wrap;html=1;" vertex="1" parent="WIyWlLk6GJQsqaUBKTNV-1">
          <mxGeometry x="436.5" y="1065" width="110" height="38" as="geometry" />
        </mxCell>
        <mxCell id="AJD_xcAIJQe30nwHhnDZ-156" style="edgeStyle=orthogonalEdgeStyle;rounded=0;orthogonalLoop=1;jettySize=auto;html=1;entryX=0.5;entryY=0;entryDx=0;entryDy=0;" edge="1" parent="WIyWlLk6GJQsqaUBKTNV-1" source="AJD_xcAIJQe30nwHhnDZ-77" target="AJD_xcAIJQe30nwHhnDZ-79">
          <mxGeometry relative="1" as="geometry" />
        </mxCell>
        <mxCell id="AJD_xcAIJQe30nwHhnDZ-77" value="Server Access Granted" style="rounded=0;whiteSpace=wrap;html=1;" vertex="1" parent="WIyWlLk6GJQsqaUBKTNV-1">
          <mxGeometry x="206.5" y="1142" width="110" height="38" as="geometry" />
        </mxCell>
        <mxCell id="AJD_xcAIJQe30nwHhnDZ-157" style="edgeStyle=orthogonalEdgeStyle;rounded=0;orthogonalLoop=1;jettySize=auto;html=1;entryX=0.5;entryY=0;entryDx=0;entryDy=0;" edge="1" parent="WIyWlLk6GJQsqaUBKTNV-1" source="AJD_xcAIJQe30nwHhnDZ-78" target="AJD_xcAIJQe30nwHhnDZ-80">
          <mxGeometry relative="1" as="geometry" />
        </mxCell>
        <mxCell id="AJD_xcAIJQe30nwHhnDZ-78" value="Manual System&lt;br&gt;Access&amp;nbsp;" style="rounded=0;whiteSpace=wrap;html=1;" vertex="1" parent="WIyWlLk6GJQsqaUBKTNV-1">
          <mxGeometry x="436.5" y="1142" width="110" height="38" as="geometry" />
        </mxCell>
        <mxCell id="AJD_xcAIJQe30nwHhnDZ-79" value="Session&lt;br&gt;Active?" style="rhombus;whiteSpace=wrap;html=1;" vertex="1" parent="WIyWlLk6GJQsqaUBKTNV-1">
          <mxGeometry x="213.75" y="1235" width="95.5" height="89" as="geometry" />
        </mxCell>
        <mxCell id="AJD_xcAIJQe30nwHhnDZ-80" value="Check In&lt;br&gt;required?" style="rhombus;whiteSpace=wrap;html=1;" vertex="1" parent="WIyWlLk6GJQsqaUBKTNV-1">
          <mxGeometry x="443.75" y="1235" width="95.5" height="89" as="geometry" />
        </mxCell>
        <mxCell id="AJD_xcAIJQe30nwHhnDZ-82" value="Continue Working" style="rounded=0;whiteSpace=wrap;html=1;" vertex="1" parent="WIyWlLk6GJQsqaUBKTNV-1">
          <mxGeometry x="121" y="1367" width="110" height="37" as="geometry" />
        </mxCell>
        <mxCell id="AJD_xcAIJQe30nwHhnDZ-83" value="Session Ended" style="rounded=0;whiteSpace=wrap;html=1;" vertex="1" parent="WIyWlLk6GJQsqaUBKTNV-1">
          <mxGeometry x="252" y="1367" width="110" height="37" as="geometry" />
        </mxCell>
        <mxCell id="AJD_xcAIJQe30nwHhnDZ-84" value="Keep Session Active" style="rounded=0;whiteSpace=wrap;html=1;" vertex="1" parent="WIyWlLk6GJQsqaUBKTNV-1">
          <mxGeometry x="514" y="1367" width="110" height="37" as="geometry" />
        </mxCell>
        <mxCell id="AJD_xcAIJQe30nwHhnDZ-85" value="Return Password" style="rounded=0;whiteSpace=wrap;html=1;" vertex="1" parent="WIyWlLk6GJQsqaUBKTNV-1">
          <mxGeometry x="383" y="1367" width="110" height="37" as="geometry" />
        </mxCell>
        <mxCell id="AJD_xcAIJQe30nwHhnDZ-88" style="edgeStyle=orthogonalEdgeStyle;rounded=0;orthogonalLoop=1;jettySize=auto;html=1;exitX=0.5;exitY=1;exitDx=0;exitDy=0;" edge="1" parent="WIyWlLk6GJQsqaUBKTNV-1" source="AJD_xcAIJQe30nwHhnDZ-83" target="AJD_xcAIJQe30nwHhnDZ-83">
          <mxGeometry relative="1" as="geometry" />
        </mxCell>
        <mxCell id="AJD_xcAIJQe30nwHhnDZ-174" style="edgeStyle=orthogonalEdgeStyle;rounded=0;orthogonalLoop=1;jettySize=auto;html=1;entryX=0.5;entryY=0;entryDx=0;entryDy=0;" edge="1" parent="WIyWlLk6GJQsqaUBKTNV-1" source="AJD_xcAIJQe30nwHhnDZ-89" target="AJD_xcAIJQe30nwHhnDZ-90">
          <mxGeometry relative="1" as="geometry" />
        </mxCell>
        <mxCell id="AJD_xcAIJQe30nwHhnDZ-89" value="Password&lt;br&gt;Rotation" style="rounded=0;whiteSpace=wrap;html=1;" vertex="1" parent="WIyWlLk6GJQsqaUBKTNV-1">
          <mxGeometry x="321.82" y="1469" width="110" height="38" as="geometry" />
        </mxCell>
        <mxCell id="AJD_xcAIJQe30nwHhnDZ-175" style="edgeStyle=orthogonalEdgeStyle;rounded=0;orthogonalLoop=1;jettySize=auto;html=1;entryX=0.5;entryY=0;entryDx=0;entryDy=0;" edge="1" parent="WIyWlLk6GJQsqaUBKTNV-1" source="AJD_xcAIJQe30nwHhnDZ-90" target="AJD_xcAIJQe30nwHhnDZ-91">
          <mxGeometry relative="1" as="geometry" />
        </mxCell>
        <mxCell id="AJD_xcAIJQe30nwHhnDZ-90" value="Generate New&lt;br&gt;Password" style="rounded=0;whiteSpace=wrap;html=1;" vertex="1" parent="WIyWlLk6GJQsqaUBKTNV-1">
          <mxGeometry x="322.12" y="1540" width="110" height="38" as="geometry" />
        </mxCell>
        <mxCell id="AJD_xcAIJQe30nwHhnDZ-91" value="Store in&lt;br&gt;Database" style="rounded=0;whiteSpace=wrap;html=1;" vertex="1" parent="WIyWlLk6GJQsqaUBKTNV-1">
          <mxGeometry x="321.82" y="1615" width="110" height="38" as="geometry" />
        </mxCell>
        <mxCell id="AJD_xcAIJQe30nwHhnDZ-92" value="East SQL DB" style="shape=cylinder3;whiteSpace=wrap;html=1;boundedLbl=1;backgroundOutline=1;size=15;" vertex="1" parent="WIyWlLk6GJQsqaUBKTNV-1">
          <mxGeometry x="231" y="1726" width="87.25" height="55" as="geometry" />
        </mxCell>
        <mxCell id="AJD_xcAIJQe30nwHhnDZ-93" value="West SQL DB" style="shape=cylinder3;whiteSpace=wrap;html=1;boundedLbl=1;backgroundOutline=1;size=15;" vertex="1" parent="WIyWlLk6GJQsqaUBKTNV-1">
          <mxGeometry x="426.75" y="1726" width="87.25" height="58" as="geometry" />
        </mxCell>
        <mxCell id="AJD_xcAIJQe30nwHhnDZ-97" value="" style="endArrow=classic;startArrow=classic;html=1;rounded=0;entryX=0;entryY=0.5;entryDx=0;entryDy=0;entryPerimeter=0;exitX=1;exitY=0.5;exitDx=0;exitDy=0;exitPerimeter=0;" edge="1" parent="WIyWlLk6GJQsqaUBKTNV-1" source="AJD_xcAIJQe30nwHhnDZ-92" target="AJD_xcAIJQe30nwHhnDZ-93">
          <mxGeometry width="50" height="50" relative="1" as="geometry">
            <mxPoint x="327.75" y="1772" as="sourcePoint" />
            <mxPoint x="377.75" y="1722" as="targetPoint" />
          </mxGeometry>
        </mxCell>
        <mxCell id="AJD_xcAIJQe30nwHhnDZ-98" value="&lt;font style=&quot;font-size: 12px;&quot;&gt;Replication&lt;/font&gt;" style="edgeLabel;html=1;align=center;verticalAlign=middle;resizable=0;points=[];" vertex="1" connectable="0" parent="AJD_xcAIJQe30nwHhnDZ-97">
          <mxGeometry x="-0.3705" y="2" relative="1" as="geometry">
            <mxPoint x="19" y="-8" as="offset" />
          </mxGeometry>
        </mxCell>
        <mxCell id="AJD_xcAIJQe30nwHhnDZ-108" value="" style="endArrow=classic;html=1;rounded=0;exitX=0;exitY=0.5;exitDx=0;exitDy=0;entryX=0.5;entryY=0;entryDx=0;entryDy=0;curved=1;" edge="1" parent="WIyWlLk6GJQsqaUBKTNV-1" source="AJD_xcAIJQe30nwHhnDZ-61" target="AJD_xcAIJQe30nwHhnDZ-62">
          <mxGeometry relative="1" as="geometry">
            <mxPoint x="310" y="347" as="sourcePoint" />
            <mxPoint x="410" y="347" as="targetPoint" />
            <Array as="points">
              <mxPoint x="278" y="301" />
            </Array>
          </mxGeometry>
        </mxCell>
        <mxCell id="AJD_xcAIJQe30nwHhnDZ-109" value="Current" style="edgeLabel;resizable=0;html=1;;align=center;verticalAlign=middle;" connectable="0" vertex="1" parent="AJD_xcAIJQe30nwHhnDZ-108">
          <mxGeometry relative="1" as="geometry" />
        </mxCell>
        <mxCell id="AJD_xcAIJQe30nwHhnDZ-110" value="" style="endArrow=classic;html=1;rounded=0;exitX=1;exitY=0.5;exitDx=0;exitDy=0;entryX=0.5;entryY=0;entryDx=0;entryDy=0;verticalAlign=top;curved=1;" edge="1" parent="WIyWlLk6GJQsqaUBKTNV-1" source="AJD_xcAIJQe30nwHhnDZ-61" target="AJD_xcAIJQe30nwHhnDZ-63">
          <mxGeometry relative="1" as="geometry">
            <mxPoint x="559" y="274" as="sourcePoint" />
            <mxPoint x="479" y="340" as="targetPoint" />
            <Array as="points">
              <mxPoint x="475" y="299" />
            </Array>
          </mxGeometry>
        </mxCell>
        <mxCell id="AJD_xcAIJQe30nwHhnDZ-111" value="Future" style="edgeLabel;resizable=0;html=1;;align=center;verticalAlign=middle;" connectable="0" vertex="1" parent="AJD_xcAIJQe30nwHhnDZ-110">
          <mxGeometry relative="1" as="geometry" />
        </mxCell>
        <mxCell id="AJD_xcAIJQe30nwHhnDZ-125" value="" style="endArrow=classic;html=1;rounded=0;exitX=0.5;exitY=1;exitDx=0;exitDy=0;curved=1;" edge="1" parent="WIyWlLk6GJQsqaUBKTNV-1" source="AJD_xcAIJQe30nwHhnDZ-64">
          <mxGeometry width="50" height="50" relative="1" as="geometry">
            <mxPoint x="335" y="472" as="sourcePoint" />
            <mxPoint x="361" y="483" as="targetPoint" />
            <Array as="points">
              <mxPoint x="314" y="476" />
            </Array>
          </mxGeometry>
        </mxCell>
        <mxCell id="AJD_xcAIJQe30nwHhnDZ-126" value="" style="endArrow=classic;html=1;rounded=0;exitX=0.5;exitY=1;exitDx=0;exitDy=0;curved=1;" edge="1" parent="WIyWlLk6GJQsqaUBKTNV-1" source="AJD_xcAIJQe30nwHhnDZ-65">
          <mxGeometry width="50" height="50" relative="1" as="geometry">
            <mxPoint x="335" y="472" as="sourcePoint" />
            <mxPoint x="404" y="484" as="targetPoint" />
            <Array as="points">
              <mxPoint x="448" y="471" />
            </Array>
          </mxGeometry>
        </mxCell>
        <mxCell id="AJD_xcAIJQe30nwHhnDZ-131" value="" style="endArrow=classic;html=1;rounded=0;exitX=0;exitY=1;exitDx=0;exitDy=0;entryX=0.5;entryY=0;entryDx=0;entryDy=0;curved=1;" edge="1" parent="WIyWlLk6GJQsqaUBKTNV-1" source="AJD_xcAIJQe30nwHhnDZ-68" target="AJD_xcAIJQe30nwHhnDZ-69">
          <mxGeometry relative="1" as="geometry">
            <mxPoint x="310" y="647" as="sourcePoint" />
            <mxPoint x="410" y="647" as="targetPoint" />
            <Array as="points">
              <mxPoint x="296" y="647" />
            </Array>
          </mxGeometry>
        </mxCell>
        <mxCell id="AJD_xcAIJQe30nwHhnDZ-132" value="Primary" style="edgeLabel;resizable=0;html=1;;align=center;verticalAlign=middle;" connectable="0" vertex="1" parent="AJD_xcAIJQe30nwHhnDZ-131">
          <mxGeometry relative="1" as="geometry" />
        </mxCell>
        <mxCell id="AJD_xcAIJQe30nwHhnDZ-136" value="" style="endArrow=classic;html=1;rounded=0;exitX=1;exitY=1;exitDx=0;exitDy=0;entryX=0.5;entryY=0;entryDx=0;entryDy=0;curved=1;" edge="1" parent="WIyWlLk6GJQsqaUBKTNV-1" source="AJD_xcAIJQe30nwHhnDZ-68" target="AJD_xcAIJQe30nwHhnDZ-70">
          <mxGeometry relative="1" as="geometry">
            <mxPoint x="467.12" y="660" as="sourcePoint" />
            <mxPoint x="567.12" y="660" as="targetPoint" />
            <Array as="points">
              <mxPoint x="471" y="650" />
            </Array>
          </mxGeometry>
        </mxCell>
        <mxCell id="AJD_xcAIJQe30nwHhnDZ-137" value="Failover" style="edgeLabel;resizable=0;html=1;;align=center;verticalAlign=middle;" connectable="0" vertex="1" parent="AJD_xcAIJQe30nwHhnDZ-136">
          <mxGeometry relative="1" as="geometry" />
        </mxCell>
        <mxCell id="AJD_xcAIJQe30nwHhnDZ-140" value="" style="endArrow=classic;html=1;rounded=0;exitX=0.594;exitY=1;exitDx=0;exitDy=0;entryX=0.25;entryY=0;entryDx=0;entryDy=0;curved=1;exitPerimeter=0;" edge="1" parent="WIyWlLk6GJQsqaUBKTNV-1" source="AJD_xcAIJQe30nwHhnDZ-69" target="AJD_xcAIJQe30nwHhnDZ-71">
          <mxGeometry width="50" height="50" relative="1" as="geometry">
            <mxPoint x="335" y="772" as="sourcePoint" />
            <mxPoint x="385" y="722" as="targetPoint" />
            <Array as="points">
              <mxPoint x="303" y="775" />
            </Array>
          </mxGeometry>
        </mxCell>
        <mxCell id="AJD_xcAIJQe30nwHhnDZ-141" value="" style="endArrow=classic;html=1;rounded=0;exitX=0.5;exitY=1;exitDx=0;exitDy=0;entryX=0.692;entryY=0.006;entryDx=0;entryDy=0;entryPerimeter=0;curved=1;" edge="1" parent="WIyWlLk6GJQsqaUBKTNV-1" source="AJD_xcAIJQe30nwHhnDZ-70" target="AJD_xcAIJQe30nwHhnDZ-71">
          <mxGeometry width="50" height="50" relative="1" as="geometry">
            <mxPoint x="335" y="772" as="sourcePoint" />
            <mxPoint x="418" y="796" as="targetPoint" />
            <Array as="points">
              <mxPoint x="462" y="776" />
            </Array>
          </mxGeometry>
        </mxCell>
        <mxCell id="AJD_xcAIJQe30nwHhnDZ-147" value="" style="endArrow=classic;html=1;rounded=0;exitX=0;exitY=1;exitDx=0;exitDy=0;entryX=0.5;entryY=0;entryDx=0;entryDy=0;curved=1;" edge="1" parent="WIyWlLk6GJQsqaUBKTNV-1" source="AJD_xcAIJQe30nwHhnDZ-72" target="AJD_xcAIJQe30nwHhnDZ-73">
          <mxGeometry relative="1" as="geometry">
            <mxPoint x="310" y="947" as="sourcePoint" />
            <mxPoint x="410" y="947" as="targetPoint" />
            <Array as="points">
              <mxPoint x="296" y="940" />
            </Array>
          </mxGeometry>
        </mxCell>
        <mxCell id="AJD_xcAIJQe30nwHhnDZ-148" value="Optiion 1" style="edgeLabel;resizable=0;html=1;;align=center;verticalAlign=middle;rotation=0;" connectable="0" vertex="1" parent="AJD_xcAIJQe30nwHhnDZ-147">
          <mxGeometry relative="1" as="geometry" />
        </mxCell>
        <mxCell id="AJD_xcAIJQe30nwHhnDZ-149" value="" style="endArrow=classic;html=1;rounded=0;exitX=1;exitY=1;exitDx=0;exitDy=0;entryX=0.5;entryY=0;entryDx=0;entryDy=0;curved=1;" edge="1" parent="WIyWlLk6GJQsqaUBKTNV-1" source="AJD_xcAIJQe30nwHhnDZ-72" target="AJD_xcAIJQe30nwHhnDZ-74">
          <mxGeometry relative="1" as="geometry">
            <mxPoint x="487" y="951" as="sourcePoint" />
            <mxPoint x="587" y="951" as="targetPoint" />
            <Array as="points">
              <mxPoint x="468" y="942" />
            </Array>
          </mxGeometry>
        </mxCell>
        <mxCell id="AJD_xcAIJQe30nwHhnDZ-150" value="Option 2" style="edgeLabel;resizable=0;html=1;;align=center;verticalAlign=middle;" connectable="0" vertex="1" parent="AJD_xcAIJQe30nwHhnDZ-149">
          <mxGeometry relative="1" as="geometry" />
        </mxCell>
        <mxCell id="AJD_xcAIJQe30nwHhnDZ-163" value="" style="endArrow=classic;html=1;rounded=0;exitX=0;exitY=1;exitDx=0;exitDy=0;entryX=0.605;entryY=-0.011;entryDx=0;entryDy=0;entryPerimeter=0;curved=1;" edge="1" parent="WIyWlLk6GJQsqaUBKTNV-1" source="AJD_xcAIJQe30nwHhnDZ-79" target="AJD_xcAIJQe30nwHhnDZ-82">
          <mxGeometry relative="1" as="geometry">
            <mxPoint x="310" y="1347" as="sourcePoint" />
            <mxPoint x="410" y="1347" as="targetPoint" />
            <Array as="points">
              <mxPoint x="203" y="1328" />
            </Array>
          </mxGeometry>
        </mxCell>
        <mxCell id="AJD_xcAIJQe30nwHhnDZ-164" value="Yes" style="edgeLabel;resizable=0;html=1;;align=center;verticalAlign=middle;" connectable="0" vertex="1" parent="AJD_xcAIJQe30nwHhnDZ-163">
          <mxGeometry relative="1" as="geometry" />
        </mxCell>
        <mxCell id="AJD_xcAIJQe30nwHhnDZ-165" value="" style="endArrow=classic;html=1;rounded=0;exitX=1;exitY=1;exitDx=0;exitDy=0;curved=1;" edge="1" parent="WIyWlLk6GJQsqaUBKTNV-1" source="AJD_xcAIJQe30nwHhnDZ-79">
          <mxGeometry relative="1" as="geometry">
            <mxPoint x="310" y="1347" as="sourcePoint" />
            <mxPoint x="325" y="1366" as="targetPoint" />
            <Array as="points">
              <mxPoint x="317" y="1325" />
            </Array>
          </mxGeometry>
        </mxCell>
        <mxCell id="AJD_xcAIJQe30nwHhnDZ-166" value="No" style="edgeLabel;resizable=0;html=1;;align=center;verticalAlign=middle;" connectable="0" vertex="1" parent="AJD_xcAIJQe30nwHhnDZ-165">
          <mxGeometry relative="1" as="geometry" />
        </mxCell>
        <mxCell id="AJD_xcAIJQe30nwHhnDZ-167" value="" style="endArrow=classic;html=1;rounded=0;exitX=0;exitY=1;exitDx=0;exitDy=0;entryX=0.398;entryY=0.011;entryDx=0;entryDy=0;entryPerimeter=0;curved=1;" edge="1" parent="WIyWlLk6GJQsqaUBKTNV-1" source="AJD_xcAIJQe30nwHhnDZ-80" target="AJD_xcAIJQe30nwHhnDZ-85">
          <mxGeometry relative="1" as="geometry">
            <mxPoint x="310" y="1347" as="sourcePoint" />
            <mxPoint x="410" y="1347" as="targetPoint" />
            <Array as="points">
              <mxPoint x="432" y="1327" />
            </Array>
          </mxGeometry>
        </mxCell>
        <mxCell id="AJD_xcAIJQe30nwHhnDZ-168" value="Yes" style="edgeLabel;resizable=0;html=1;;align=center;verticalAlign=middle;" connectable="0" vertex="1" parent="AJD_xcAIJQe30nwHhnDZ-167">
          <mxGeometry relative="1" as="geometry" />
        </mxCell>
        <mxCell id="AJD_xcAIJQe30nwHhnDZ-169" value="" style="endArrow=classic;html=1;rounded=0;exitX=1;exitY=1;exitDx=0;exitDy=0;entryX=0.5;entryY=0;entryDx=0;entryDy=0;curved=1;" edge="1" parent="WIyWlLk6GJQsqaUBKTNV-1" source="AJD_xcAIJQe30nwHhnDZ-80" target="AJD_xcAIJQe30nwHhnDZ-84">
          <mxGeometry relative="1" as="geometry">
            <mxPoint x="310" y="1347" as="sourcePoint" />
            <mxPoint x="410" y="1347" as="targetPoint" />
            <Array as="points">
              <mxPoint x="557" y="1323" />
            </Array>
          </mxGeometry>
        </mxCell>
        <mxCell id="AJD_xcAIJQe30nwHhnDZ-170" value="No" style="edgeLabel;resizable=0;html=1;;align=center;verticalAlign=middle;" connectable="0" vertex="1" parent="AJD_xcAIJQe30nwHhnDZ-169">
          <mxGeometry relative="1" as="geometry" />
        </mxCell>
        <mxCell id="AJD_xcAIJQe30nwHhnDZ-171" value="" style="endArrow=classic;html=1;rounded=0;exitX=0.5;exitY=1;exitDx=0;exitDy=0;entryX=0.314;entryY=0.021;entryDx=0;entryDy=0;entryPerimeter=0;curved=1;" edge="1" parent="WIyWlLk6GJQsqaUBKTNV-1" source="AJD_xcAIJQe30nwHhnDZ-83" target="AJD_xcAIJQe30nwHhnDZ-89">
          <mxGeometry width="50" height="50" relative="1" as="geometry">
            <mxPoint x="335" y="1372" as="sourcePoint" />
            <mxPoint x="385" y="1322" as="targetPoint" />
            <Array as="points">
              <mxPoint x="320" y="1441" />
            </Array>
          </mxGeometry>
        </mxCell>
        <mxCell id="AJD_xcAIJQe30nwHhnDZ-172" value="" style="endArrow=classic;html=1;rounded=0;exitX=0.5;exitY=1;exitDx=0;exitDy=0;entryX=0.642;entryY=0.021;entryDx=0;entryDy=0;entryPerimeter=0;curved=1;" edge="1" parent="WIyWlLk6GJQsqaUBKTNV-1" source="AJD_xcAIJQe30nwHhnDZ-85" target="AJD_xcAIJQe30nwHhnDZ-89">
          <mxGeometry width="50" height="50" relative="1" as="geometry">
            <mxPoint x="335" y="1372" as="sourcePoint" />
            <mxPoint x="385" y="1322" as="targetPoint" />
            <Array as="points">
              <mxPoint x="426" y="1446" />
            </Array>
          </mxGeometry>
        </mxCell>
        <mxCell id="AJD_xcAIJQe30nwHhnDZ-178" value="" style="endArrow=classic;html=1;rounded=0;entryX=0.5;entryY=0;entryDx=0;entryDy=0;entryPerimeter=0;exitX=0.25;exitY=1;exitDx=0;exitDy=0;curved=1;" edge="1" parent="WIyWlLk6GJQsqaUBKTNV-1" source="AJD_xcAIJQe30nwHhnDZ-91" target="AJD_xcAIJQe30nwHhnDZ-92">
          <mxGeometry width="50" height="50" relative="1" as="geometry">
            <mxPoint x="272" y="1677" as="sourcePoint" />
            <mxPoint x="322" y="1627" as="targetPoint" />
            <Array as="points">
              <mxPoint x="291" y="1667" />
              <mxPoint x="279" y="1694" />
            </Array>
          </mxGeometry>
        </mxCell>
        <mxCell id="AJD_xcAIJQe30nwHhnDZ-179" value="" style="endArrow=classic;html=1;rounded=0;entryX=0.5;entryY=0;entryDx=0;entryDy=0;entryPerimeter=0;exitX=0.25;exitY=1;exitDx=0;exitDy=0;curved=1;" edge="1" parent="WIyWlLk6GJQsqaUBKTNV-1">
          <mxGeometry width="50" height="50" relative="1" as="geometry">
            <mxPoint x="393.11999999999955" y="1653" as="sourcePoint" />
            <mxPoint x="467.11999999999955" y="1726" as="targetPoint" />
            <Array as="points">
              <mxPoint x="451.11999999999955" y="1667" />
              <mxPoint x="463.11999999999955" y="1694" />
            </Array>
          </mxGeometry>
        </mxCell>
        <mxCell id="AJD_xcAIJQe30nwHhnDZ-180" value="" style="endArrow=none;dashed=1;html=1;rounded=0;" edge="1" parent="WIyWlLk6GJQsqaUBKTNV-1">
          <mxGeometry width="50" height="50" relative="1" as="geometry">
            <mxPoint x="84" y="1215" as="sourcePoint" />
            <mxPoint x="691" y="1215" as="targetPoint" />
          </mxGeometry>
        </mxCell>
        <mxCell id="AJD_xcAIJQe30nwHhnDZ-181" value="" style="endArrow=none;dashed=1;html=1;rounded=0;" edge="1" parent="WIyWlLk6GJQsqaUBKTNV-1">
          <mxGeometry width="50" height="50" relative="1" as="geometry">
            <mxPoint x="86" y="1683" as="sourcePoint" />
            <mxPoint x="691" y="1683" as="targetPoint" />
          </mxGeometry>
        </mxCell>
        <mxCell id="AJD_xcAIJQe30nwHhnDZ-182" value="" style="endArrow=none;dashed=1;html=1;rounded=0;" edge="1" parent="WIyWlLk6GJQsqaUBKTNV-1">
          <mxGeometry width="50" height="50" relative="1" as="geometry">
            <mxPoint x="86" y="1681" as="sourcePoint" />
            <mxPoint x="86" y="1217" as="targetPoint" />
          </mxGeometry>
        </mxCell>
        <mxCell id="AJD_xcAIJQe30nwHhnDZ-183" value="" style="endArrow=none;dashed=1;html=1;rounded=0;" edge="1" parent="WIyWlLk6GJQsqaUBKTNV-1">
          <mxGeometry width="50" height="50" relative="1" as="geometry">
            <mxPoint x="690" y="1682" as="sourcePoint" />
            <mxPoint x="690" y="1218" as="targetPoint" />
          </mxGeometry>
        </mxCell>
        <mxCell id="AJD_xcAIJQe30nwHhnDZ-184" value="" style="endArrow=none;dashed=1;html=1;rounded=0;" edge="1" parent="WIyWlLk6GJQsqaUBKTNV-1">
          <mxGeometry width="50" height="50" relative="1" as="geometry">
            <mxPoint x="86" y="104" as="sourcePoint" />
            <mxPoint x="687" y="104" as="targetPoint" />
          </mxGeometry>
        </mxCell>
        <mxCell id="AJD_xcAIJQe30nwHhnDZ-185" value="" style="endArrow=none;dashed=1;html=1;rounded=0;" edge="1" parent="WIyWlLk6GJQsqaUBKTNV-1">
          <mxGeometry width="50" height="50" relative="1" as="geometry">
            <mxPoint x="86" y="458" as="sourcePoint" />
            <mxPoint x="686" y="458" as="targetPoint" />
          </mxGeometry>
        </mxCell>
        <mxCell id="AJD_xcAIJQe30nwHhnDZ-186" value="" style="endArrow=none;dashed=1;html=1;rounded=0;" edge="1" parent="WIyWlLk6GJQsqaUBKTNV-1">
          <mxGeometry width="50" height="50" relative="1" as="geometry">
            <mxPoint x="87" y="105" as="sourcePoint" />
            <mxPoint x="87" y="457" as="targetPoint" />
          </mxGeometry>
        </mxCell>
        <mxCell id="AJD_xcAIJQe30nwHhnDZ-187" value="" style="endArrow=none;dashed=1;html=1;rounded=0;" edge="1" parent="WIyWlLk6GJQsqaUBKTNV-1">
          <mxGeometry width="50" height="50" relative="1" as="geometry">
            <mxPoint x="689" y="103" as="sourcePoint" />
            <mxPoint x="689" y="463" as="targetPoint" />
          </mxGeometry>
        </mxCell>
        <mxCell id="AJD_xcAIJQe30nwHhnDZ-188" value="&lt;b&gt;Authentication&lt;/b&gt;" style="text;html=1;align=center;verticalAlign=middle;resizable=0;points=[];autosize=1;strokeColor=none;fillColor=none;" vertex="1" parent="WIyWlLk6GJQsqaUBKTNV-1">
          <mxGeometry x="83" y="106" width="102" height="26" as="geometry" />
        </mxCell>
        <mxCell id="AJD_xcAIJQe30nwHhnDZ-189" value="&lt;b&gt;Password&lt;br&gt;Management&lt;/b&gt;" style="text;html=1;align=center;verticalAlign=middle;resizable=0;points=[];autosize=1;strokeColor=none;fillColor=none;" vertex="1" parent="WIyWlLk6GJQsqaUBKTNV-1">
          <mxGeometry x="86" y="1217" width="91" height="41" as="geometry" />
        </mxCell>
        <mxCell id="AJD_xcAIJQe30nwHhnDZ-190" value="" style="endArrow=none;dashed=1;html=1;rounded=0;" edge="1" parent="WIyWlLk6GJQsqaUBKTNV-1">
          <mxGeometry width="50" height="50" relative="1" as="geometry">
            <mxPoint x="90" y="1704" as="sourcePoint" />
            <mxPoint x="695" y="1704" as="targetPoint" />
          </mxGeometry>
        </mxCell>
        <mxCell id="AJD_xcAIJQe30nwHhnDZ-191" value="" style="endArrow=none;dashed=1;html=1;rounded=0;" edge="1" parent="WIyWlLk6GJQsqaUBKTNV-1">
          <mxGeometry width="50" height="50" relative="1" as="geometry">
            <mxPoint x="87" y="1807" as="sourcePoint" />
            <mxPoint x="692" y="1807" as="targetPoint" />
          </mxGeometry>
        </mxCell>
        <mxCell id="AJD_xcAIJQe30nwHhnDZ-193" value="" style="endArrow=none;dashed=1;html=1;rounded=0;" edge="1" parent="WIyWlLk6GJQsqaUBKTNV-1">
          <mxGeometry width="50" height="50" relative="1" as="geometry">
            <mxPoint x="86" y="1807" as="sourcePoint" />
            <mxPoint x="86" y="1702" as="targetPoint" />
          </mxGeometry>
        </mxCell>
        <mxCell id="AJD_xcAIJQe30nwHhnDZ-194" value="" style="endArrow=none;dashed=1;html=1;rounded=0;" edge="1" parent="WIyWlLk6GJQsqaUBKTNV-1">
          <mxGeometry width="50" height="50" relative="1" as="geometry">
            <mxPoint x="692" y="1807.5" as="sourcePoint" />
            <mxPoint x="692" y="1702.5" as="targetPoint" />
          </mxGeometry>
        </mxCell>
        <mxCell id="AJD_xcAIJQe30nwHhnDZ-195" value="&lt;b&gt;Database&lt;br&gt;Synchronisation&lt;/b&gt;" style="text;html=1;align=center;verticalAlign=middle;resizable=0;points=[];autosize=1;strokeColor=none;fillColor=none;" vertex="1" parent="WIyWlLk6GJQsqaUBKTNV-1">
          <mxGeometry x="83" y="1706" width="112" height="41" as="geometry" />
        </mxCell>
        <mxCell id="AJD_xcAIJQe30nwHhnDZ-198" style="edgeStyle=orthogonalEdgeStyle;rounded=0;orthogonalLoop=1;jettySize=auto;html=1;exitX=0.5;exitY=1;exitDx=0;exitDy=0;" edge="1" parent="WIyWlLk6GJQsqaUBKTNV-1" source="AJD_xcAIJQe30nwHhnDZ-59">
          <mxGeometry relative="1" as="geometry">
            <mxPoint x="377" y="182" as="targetPoint" />
          </mxGeometry>
        </mxCell>
        <mxCell id="AJD_xcAIJQe30nwHhnDZ-199" style="edgeStyle=orthogonalEdgeStyle;rounded=0;orthogonalLoop=1;jettySize=auto;html=1;entryX=0.454;entryY=0.009;entryDx=0;entryDy=0;entryPerimeter=0;" edge="1" parent="WIyWlLk6GJQsqaUBKTNV-1" source="AJD_xcAIJQe30nwHhnDZ-58" target="AJD_xcAIJQe30nwHhnDZ-59">
          <mxGeometry relative="1" as="geometry" />
        </mxCell>
      </root>
    </mxGraphModel>
  </diagram>
</mxfile>
